<svg xmlns="http://www.w3.org/2000/svg" xml:space="preserve" width="7.11111in" height="7.11111in" version="1.1" style="shape-rendering:geometricPrecision; text-rendering:geometricPrecision; image-rendering:optimizeQuality; fill-rule:evenodd; clip-rule:evenodd" viewBox="0 0 7111 7111" xmlns:xlink="http://www.w3.org/1999/xlink">
 <defs>
  <style type="text/css">
   
    .fil0 {fill:black}
   
  </style>
 </defs>
 <g id="Layer_x0020_1">
  <metadata id="CorelCorpID_0Corel-Layer"></metadata>
  <g id="_611030128">
   <path class="fil0" d="M2130 3443l-607 -1867c-16,-50 2,-104 44,-135l1918 -1393c42,-31 99,-31 141,0l1918 1393c42,31 60,85 44,135l-607 1867 0 -234c0,-454 -370,-824 -824,-824l-1203 0c-454,0 -824,370 -824,824l0 234zm1426 -1304c348,0 632,-284 632,-633 0,-348 -284,-632 -632,-632 -349,0 -633,284 -633,632 0,349 284,633 633,633zm0 -1145c282,0 512,230 512,512 0,283 -230,512 -512,512 -283,0 -512,-229 -512,-512 0,-282 229,-512 512,-512z" id="id_102" style="fill: rgb(120, 111, 166);"></path>
   <path class="fil0" d="M4741 3913l-2371 0c-66,0 -120,-53 -120,-120l0 -584c0,-388 316,-704 704,-704l1203 0c388,0 704,316 704,704l0 584c0,67 -54,120 -120,120z" id="id_103" style="fill: rgb(120, 111, 166);"></path>
  </g>
  <path class="fil0" d="M550 6616l-442 -1361c-16,-50 1,-104 43,-135l1488 -1081c42,-30 99,-30 141,0l1488 1081c42,31 60,85 44,135l-443 1361 0 -103c0,-382 -311,-693 -693,-693l-933 0c-382,0 -693,311 -693,693l0 103zm1160 -1005c277,0 503,-226 503,-503 0,-278 -226,-504 -503,-504 -278,0 -504,226 -504,504 0,277 226,503 504,503zm0 -887c211,0 383,172 383,384 0,211 -172,383 -383,383 -212,0 -384,-172 -384,-383 0,-212 172,-384 384,-384z" id="id_104" style="fill: rgb(120, 111, 166);"></path>
  <path class="fil0" d="M2629 7086l-1839 0c-66,0 -120,-53 -120,-120l0 -453c0,-316 257,-573 573,-573l933 0c316,0 573,257 573,573l0 453c0,67 -54,120 -120,120z" id="id_105" style="fill: rgb(120, 111, 166);"></path>
  <path class="fil0" d="M4242 6616l-442 -1361c-16,-50 1,-104 43,-135l1488 -1081c42,-30 99,-30 141,0l1488 1081c42,31 59,85 43,135l-442 1361 0 -103c0,-382 -311,-693 -693,-693l-933 0c-382,0 -693,311 -693,693l0 103zm1159 -1005c278,0 504,-226 504,-503 0,-278 -226,-504 -504,-504 -277,0 -503,226 -503,504 0,277 226,503 503,503zm0 -887c212,0 384,172 384,384 0,211 -172,383 -384,383 -211,0 -383,-172 -383,-383 0,-212 172,-384 383,-384z" id="id_106" style="fill: rgb(120, 111, 166);"></path>
  <path class="fil0" d="M6321 7086l-1839 0c-66,0 -120,-53 -120,-120l0 -453c0,-316 257,-573 573,-573l933 0c316,0 573,257 573,573l0 453c0,67 -54,120 -120,120z" id="id_107" style="fill: rgb(120, 111, 166);"></path>
  <path class="fil0" d="M4658 4797c-27,0 -53,-9 -75,-26l-1027 -824 -1027 824c-52,41 -128,33 -169,-19 -42,-52 -33,-127 18,-169l1102 -883c44,-36 107,-36 151,0l1102 883c52,42 60,117 18,169 -23,30 -58,45 -93,45z" id="id_108" style="fill: rgb(120, 111, 166);"></path>
 </g>
</svg>