<svg width="40" height="40" viewBox="0 0 40 40" fill="none" xmlns="http://www.w3.org/2000/svg">
<path d="M27.3693 13.2531C31.436 17.3198 31.436 23.9197 27.3693 27.9864C23.3026 32.0531 16.7026 32.0531 12.6359 27.9864C8.56927 23.9197 8.56927 17.3198 12.6359 13.2531C16.7026 9.18646 23.3026 9.18646 27.3693 13.2531Z" fill="#FAC358"/>
<path opacity="0.4" d="M13.7497 37.3161C13.5997 37.3161 13.4331 37.2828 13.2831 37.2328C9.53307 35.7328 6.49972 33.0828 4.46639 29.5828C2.49972 26.1661 1.71639 22.2995 2.23306 18.3662C2.31639 17.6828 2.96639 17.1994 3.63305 17.2828C4.31639 17.3661 4.79971 17.9995 4.71638 18.6828C4.28304 22.0495 4.94975 25.3828 6.63308 28.3161C8.36642 31.3161 10.983 33.5994 14.1997 34.8828C14.833 35.1494 15.1497 35.8661 14.8997 36.5161C14.7164 37.0161 14.2331 37.3161 13.7497 37.3161Z" fill="#FAC358"/>
<path opacity="0.4" d="M9.75326 8.71301C9.38659 8.71301 9.01993 8.54638 8.76993 8.22972C8.3366 7.67972 8.43661 6.8964 8.98661 6.47974C12.1699 3.9964 15.9699 2.67969 20.0032 2.67969C23.9366 2.67969 27.6866 3.94637 30.8366 6.34637C31.3866 6.76304 31.4866 7.54635 31.0699 8.09635C30.6533 8.64635 29.8699 8.74638 29.3199 8.32971C26.6199 6.26305 23.4032 5.17969 20.0032 5.17969C16.5366 5.17969 13.2532 6.31306 10.5199 8.44639C10.2866 8.62972 10.0199 8.71301 9.75326 8.71301Z" fill="#FAC358"/>
<path opacity="0.4" d="M26.2466 37.3151C25.7466 37.3151 25.2799 37.015 25.0799 36.5317C24.8299 35.8984 25.1299 35.1651 25.7799 34.8984C28.9966 33.5984 31.6133 31.3317 33.3466 28.3317C35.0466 25.3984 35.7133 22.065 35.2633 18.6983C35.1799 18.015 35.6633 17.3817 36.3466 17.2984C37.0133 17.2151 37.6633 17.6984 37.7466 18.3818C38.2466 22.2984 37.4799 26.1817 35.5133 29.5984C33.4966 33.0984 30.4466 35.7317 26.6966 37.2484C26.5633 37.2817 26.4133 37.3151 26.2466 37.3151Z" fill="#FAC358"/>
</svg>
